<?xml version="1.0" encoding="UTF-8" standalone="no"?><svg xmlns="http://www.w3.org/2000/svg" xmlns:xlink="http://www.w3.org/1999/xlink" contentScriptType="application/ecmascript" contentStyleType="text/css" height="374px" preserveAspectRatio="none" style="width:882px;height:374px;" version="1.1" viewBox="0 0 882 374" width="882px" zoomAndPan="magnify"><defs><filter height="300%" id="f1jr1uifh8ihod" width="300%" x="-1" y="-1"><feGaussianBlur result="blurOut" stdDeviation="2.0"/><feColorMatrix in="blurOut" result="blurOut2" type="matrix" values="0 0 0 0 0 0 0 0 0 0 0 0 0 0 0 0 0 0 .4 0"/><feOffset dx="4.0" dy="4.0" in="blurOut2" result="blurOut3"/><feBlend in="SourceGraphic" in2="blurOut3" mode="normal"/></filter></defs><g><rect fill="#FFFFFF" filter="url(#f1jr1uifh8ihod)" height="256.9297" style="stroke: #A80036; stroke-width: 1.0;" width="10" x="49.5" y="96.2969"/><rect fill="#FFFFFF" filter="url(#f1jr1uifh8ihod)" height="192.6641" style="stroke: #A80036; stroke-width: 1.0;" width="10" x="132" y="160.5625"/><rect fill="#FFFFFF" filter="url(#f1jr1uifh8ihod)" height="43.2656" style="stroke: #A80036; stroke-width: 1.0;" width="10" x="260" y="117.2969"/><rect fill="#FFFFFF" filter="url(#f1jr1uifh8ihod)" height="126.6641" style="stroke: #A80036; stroke-width: 1.0;" width="10" x="441.5" y="217.5625"/><rect fill="#FFFFFF" filter="url(#f1jr1uifh8ihod)" height="83.5313" style="stroke: #A80036; stroke-width: 1.0;" width="10" x="584.5" y="246.6953"/><rect fill="#FFFFFF" filter="url(#f1jr1uifh8ihod)" height="256.9297" style="stroke: #A80036; stroke-width: 1.0;" width="10" x="685.5" y="96.2969"/><line style="stroke: #A80036; stroke-width: 1.0; stroke-dasharray: 5.0,5.0;" x1="54" x2="54" y1="86.2969" y2="362.2266"/><line style="stroke: #A80036; stroke-width: 1.0; stroke-dasharray: 5.0,5.0;" x1="137" x2="137" y1="86.2969" y2="362.2266"/><line style="stroke: #A80036; stroke-width: 1.0; stroke-dasharray: 5.0,5.0;" x1="265" x2="265" y1="86.2969" y2="362.2266"/><line style="stroke: #A80036; stroke-width: 1.0; stroke-dasharray: 5.0,5.0;" x1="446" x2="446" y1="86.2969" y2="362.2266"/><line style="stroke: #A80036; stroke-width: 1.0; stroke-dasharray: 5.0,5.0;" x1="589" x2="589" y1="86.2969" y2="362.2266"/><line style="stroke: #A80036; stroke-width: 1.0; stroke-dasharray: 5.0,5.0;" x1="690" x2="690" y1="86.2969" y2="362.2266"/><rect fill="#FEFECE" filter="url(#f1jr1uifh8ihod)" height="30.2969" style="stroke: #A80036; stroke-width: 1.5;" width="89" x="8" y="51"/><text fill="#000000" font-family="sans-serif" font-size="14" lengthAdjust="spacingAndGlyphs" text-decoration="underline" textLength="75" x="15" y="70.9951">ng:Angular</text><line style="stroke: #000000; stroke-width: 1.0;" x1="15" x2="90" y1="72.9951" y2="72.9951"/><text fill="#000000" font-family="sans-serif" font-size="14" lengthAdjust="spacingAndGlyphs" text-decoration="underline" textLength="46" x="111" y="82.9951">u:User</text><line style="stroke: #000000; stroke-width: 1.0;" x1="111" x2="157" y1="84.9951" y2="84.9951"/><ellipse cx="137" cy="13" fill="#FEFECE" filter="url(#f1jr1uifh8ihod)" rx="8" ry="8" style="stroke: #A80036; stroke-width: 2.0;"/><path d="M137,21 L137,48 M124,29 L150,29 M137,48 L124,63 M137,48 L150,63 " fill="none" filter="url(#f1jr1uifh8ihod)" style="stroke: #A80036; stroke-width: 2.0;"/><rect fill="#FEFECE" filter="url(#f1jr1uifh8ihod)" height="30.2969" style="stroke: #A80036; stroke-width: 1.5;" width="180" x="173" y="51"/><text fill="#000000" font-family="sans-serif" font-size="14" lengthAdjust="spacingAndGlyphs" text-decoration="underline" textLength="166" x="180" y="70.9951">t:ComicsListComponent</text><line style="stroke: #000000; stroke-width: 1.0;" x1="180" x2="346" y1="72.9951" y2="72.9951"/><rect fill="#FEFECE" filter="url(#f1jr1uifh8ihod)" height="30.2969" style="stroke: #A80036; stroke-width: 1.5;" width="155" x="367" y="51"/><text fill="#000000" font-family="sans-serif" font-size="14" lengthAdjust="spacingAndGlyphs" text-decoration="underline" textLength="141" x="374" y="70.9951">t:TabBarComponent</text><line style="stroke: #000000; stroke-width: 1.0;" x1="374" x2="515" y1="72.9951" y2="72.9951"/><rect fill="#FEFECE" filter="url(#f1jr1uifh8ihod)" height="30.2969" style="stroke: #A80036; stroke-width: 1.5;" width="103" x="536" y="51"/><text fill="#000000" font-family="sans-serif" font-size="14" lengthAdjust="spacingAndGlyphs" text-decoration="underline" textLength="89" x="543" y="70.9951">s:TabService</text><line style="stroke: #000000; stroke-width: 1.0;" x1="543" x2="632" y1="72.9951" y2="72.9951"/><rect fill="#FEFECE" filter="url(#f1jr1uifh8ihod)" height="30.2969" style="stroke: #A80036; stroke-width: 1.5;" width="71" x="653" y="51"/><text fill="#000000" font-family="sans-serif" font-size="14" lengthAdjust="spacingAndGlyphs" text-decoration="underline" textLength="57" x="660" y="70.9951">:Subject</text><line style="stroke: #000000; stroke-width: 1.0;" x1="660" x2="717" y1="72.9951" y2="72.9951"/><rect fill="#FFFFFF" filter="url(#f1jr1uifh8ihod)" height="256.9297" style="stroke: #A80036; stroke-width: 1.0;" width="10" x="49.5" y="96.2969"/><rect fill="#FFFFFF" filter="url(#f1jr1uifh8ihod)" height="192.6641" style="stroke: #A80036; stroke-width: 1.0;" width="10" x="132" y="160.5625"/><rect fill="#FFFFFF" filter="url(#f1jr1uifh8ihod)" height="43.2656" style="stroke: #A80036; stroke-width: 1.0;" width="10" x="260" y="117.2969"/><rect fill="#FFFFFF" filter="url(#f1jr1uifh8ihod)" height="126.6641" style="stroke: #A80036; stroke-width: 1.0;" width="10" x="441.5" y="217.5625"/><rect fill="#FFFFFF" filter="url(#f1jr1uifh8ihod)" height="83.5313" style="stroke: #A80036; stroke-width: 1.0;" width="10" x="584.5" y="246.6953"/><rect fill="#FFFFFF" filter="url(#f1jr1uifh8ihod)" height="256.9297" style="stroke: #A80036; stroke-width: 1.0;" width="10" x="685.5" y="96.2969"/><polygon fill="#A80036" points="248,113.2969,258,117.2969,248,121.2969,252,117.2969" style="stroke: #A80036; stroke-width: 1.0;"/><line style="stroke: #A80036; stroke-width: 1.0;" x1="59.5" x2="254" y1="117.2969" y2="117.2969"/><text fill="#000000" font-family="sans-serif" font-size="13" lengthAdjust="spacingAndGlyphs" textLength="45" x="66.5" y="112.3638">ngInit()</text><polygon fill="#A80036" points="673.5,142.4297,683.5,146.4297,673.5,150.4297,677.5,146.4297" style="stroke: #A80036; stroke-width: 1.0;"/><line style="stroke: #A80036; stroke-width: 1.0;" x1="270" x2="679.5" y1="146.4297" y2="146.4297"/><text fill="#000000" font-family="sans-serif" font-size="13" lengthAdjust="spacingAndGlyphs" textLength="122" x="277" y="141.4966">subscribe(callback)</text><polygon fill="#A80036" points="70.5,156.5625,60.5,160.5625,70.5,164.5625,66.5,160.5625" style="stroke: #A80036; stroke-width: 1.0;"/><line style="stroke: #A80036; stroke-width: 1.0; stroke-dasharray: 2.0,2.0;" x1="64.5" x2="264" y1="160.5625" y2="160.5625"/><rect fill="#EEEEEE" filter="url(#f1jr1uifh8ihod)" height="3" style="stroke: #EEEEEE; stroke-width: 1.0;" width="867.5" x="3" y="181.5625"/><line style="stroke: #000000; stroke-width: 1.0;" x1="3" x2="870.5" y1="181.5625" y2="181.5625"/><line style="stroke: #000000; stroke-width: 1.0;" x1="3" x2="870.5" y1="184.5625" y2="184.5625"/><polygon fill="#A80036" points="429.5,213.5625,439.5,217.5625,429.5,221.5625,433.5,217.5625" style="stroke: #A80036; stroke-width: 1.0;"/><line style="stroke: #A80036; stroke-width: 1.0;" x1="142" x2="435.5" y1="217.5625" y2="217.5625"/><text fill="#000000" font-family="sans-serif" font-size="13" lengthAdjust="spacingAndGlyphs" textLength="82" x="149" y="212.6294">select(index)</text><polygon fill="#A80036" points="572.5,242.6953,582.5,246.6953,572.5,250.6953,576.5,246.6953" style="stroke: #A80036; stroke-width: 1.0;"/><line style="stroke: #A80036; stroke-width: 1.0;" x1="451.5" x2="578.5" y1="246.6953" y2="246.6953"/><text fill="#000000" font-family="sans-serif" font-size="13" lengthAdjust="spacingAndGlyphs" textLength="107" x="458.5" y="241.7622">changeTitle(title)</text><polygon fill="#A80036" points="673.5,291.9609,683.5,295.9609,673.5,299.9609,677.5,295.9609" style="stroke: #A80036; stroke-width: 1.0;"/><line style="stroke: #A80036; stroke-width: 1.0;" x1="594.5" x2="679.5" y1="295.9609" y2="295.9609"/><text fill="#000000" font-family="sans-serif" font-size="13" lengthAdjust="spacingAndGlyphs" textLength="62" x="601.5" y="291.0278">next(title)</text><path d="M700,259.8281 L700,314.8281 L861,314.8281 L861,269.8281 L851,259.8281 L700,259.8281 " fill="#FBFB77" filter="url(#f1jr1uifh8ihod)" style="stroke: #A80036; stroke-width: 1.0;"/><path d="M851,259.8281 L851,269.8281 L861,269.8281 L851,259.8281 " fill="#FBFB77" style="stroke: #A80036; stroke-width: 1.0;"/><text fill="#000000" font-family="sans-serif" font-size="13" lengthAdjust="spacingAndGlyphs" textLength="106" x="706" y="276.895">callback function</text><text fill="#000000" font-family="sans-serif" font-size="13" lengthAdjust="spacingAndGlyphs" textLength="112" x="734" y="292.0278">subscribed above</text><text fill="#000000" font-family="sans-serif" font-size="13" lengthAdjust="spacingAndGlyphs" textLength="108" x="706" y="307.1606">will be called now</text><polygon fill="#A80036" points="462.5,326.2266,452.5,330.2266,462.5,334.2266,458.5,330.2266" style="stroke: #A80036; stroke-width: 1.0;"/><line style="stroke: #A80036; stroke-width: 1.0; stroke-dasharray: 2.0,2.0;" x1="456.5" x2="588.5" y1="330.2266" y2="330.2266"/><polygon fill="#A80036" points="153,340.2266,143,344.2266,153,348.2266,149,344.2266" style="stroke: #A80036; stroke-width: 1.0;"/><line style="stroke: #A80036; stroke-width: 1.0; stroke-dasharray: 2.0,2.0;" x1="147" x2="445.5" y1="344.2266" y2="344.2266"/><!--
@startuml
participant "<u>ng:Angular</u>" as ng
actor "<u>u:User</u>" as user
participant "<u>t:ComicsListComponent</u>" as list
participant "<u>t:TabBarComponent</u>" as tabbar
participant "<u>s:TabService</u>" as service
participant "<u>:Subject</u>" as subject
activate ng
activate subject
ng -> list: ngInit()
activate list
list -> subject: subscribe(callback)
ng <- - list
deactivate list
====
activate user
user -> tabbar: select(index)
activate tabbar
tabbar -> service: changeTitle(title)
activate service
service -> subject: next(title)
note right
	callback function
        subscribed above
	will be called now
end note
tabbar <- - service
deactivate service
user <- - tabbar
deactivate tabbar
hide footbox
@enduml

PlantUML version 1.2018.01(Sun Jan 28 18:08:22 UTC 2018)
(APACHE source distribution)
Java Runtime: Java(TM) SE Runtime Environment
JVM: Java HotSpot(TM) 64-Bit Server VM
Java Version: 1.8.0_151-b12
Operating System: Linux
OS Version: 4.4.0-101-generic
Default Encoding: UTF-8
Language: en
Country: US
--></g></svg>