<?xml version="1.0" encoding="UTF-8" standalone="no"?><svg xmlns="http://www.w3.org/2000/svg" xmlns:xlink="http://www.w3.org/1999/xlink" contentScriptType="application/ecmascript" contentStyleType="text/css" height="105px" preserveAspectRatio="none" style="width:280px;height:105px;" version="1.1" viewBox="0 0 280 105" width="280px" zoomAndPan="magnify"><defs><filter height="300%" id="fqzgoolv2lgoe" width="300%" x="-1" y="-1"><feGaussianBlur result="blurOut" stdDeviation="2.0"/><feColorMatrix in="blurOut" result="blurOut2" type="matrix" values="0 0 0 0 0 0 0 0 0 0 0 0 0 0 0 0 0 0 .4 0"/><feOffset dx="4.0" dy="4.0" in="blurOut2" result="blurOut3"/><feBlend in="SourceGraphic" in2="blurOut3" mode="normal"/></filter></defs><g><!--class TabService--><rect fill="#FEFECE" filter="url(#fqzgoolv2lgoe)" height="86.4141" id="TabService" style="stroke: #A80036; stroke-width: 1.5;" width="263" x="6" y="8"/><ellipse cx="99.25" cy="24" fill="#ADD1B2" rx="11" ry="11" style="stroke: #A80036; stroke-width: 1.0;"/><path d="M102.2188,29.6406 Q101.6406,29.9375 101,30.0859 Q100.3594,30.2344 99.6563,30.2344 Q97.1563,30.2344 95.8359,28.5859 Q94.5156,26.9375 94.5156,23.8125 Q94.5156,20.6875 95.8359,19.0313 Q97.1563,17.375 99.6563,17.375 Q100.3594,17.375 101.0078,17.5313 Q101.6563,17.6875 102.2188,17.9844 L102.2188,20.7031 Q101.5938,20.125 101,19.8516 Q100.4063,19.5781 99.7813,19.5781 Q98.4375,19.5781 97.75,20.6484 Q97.0625,21.7188 97.0625,23.8125 Q97.0625,25.9063 97.75,26.9766 Q98.4375,28.0469 99.7813,28.0469 Q100.4063,28.0469 101,27.7734 Q101.5938,27.5 102.2188,26.9219 L102.2188,29.6406 Z "/><text fill="#000000" font-family="sans-serif" font-size="12" lengthAdjust="spacingAndGlyphs" textLength="68" x="119.75" y="28.1543">TabService</text><line style="stroke: #A80036; stroke-width: 1.5;" x1="7" x2="268" y1="40" y2="40"/><rect fill="none" height="6" style="stroke: #C82930; stroke-width: 1.0;" width="6" x="14" y="48.9023"/><text fill="#000000" font-family="sans-serif" font-size="11" lengthAdjust="spacingAndGlyphs" textLength="237" x="26" y="54.2104">titleChangedSource: rxjs.Subject&lt;string&gt;</text><ellipse cx="17" cy="64.707" fill="none" rx="3" ry="3" style="stroke: #038048; stroke-width: 1.0;"/><text fill="#000000" font-family="sans-serif" font-size="11" lengthAdjust="spacingAndGlyphs" textLength="228" x="26" y="67.0151">titleChanged$: rxjs.Observable&lt;String&gt;</text><line style="stroke: #A80036; stroke-width: 1.5;" x1="7" x2="268" y1="73.6094" y2="73.6094"/><ellipse cx="17" cy="85.5117" fill="#84BE84" rx="3" ry="3" style="stroke: #038048; stroke-width: 1.0;"/><text fill="#000000" font-family="sans-serif" font-size="11" lengthAdjust="spacingAndGlyphs" textLength="135" x="26" y="87.8198">changeTitle(title: string)</text><!--
@startuml
class TabService {
 - titleChangedSource: rxjs.Subject<string>
 + titleChanged$: rxjs.Observable<String>
 + changeTitle(title: string)
}
@enduml

PlantUML version 1.2018.01(Sun Jan 28 18:08:22 UTC 2018)
(APACHE source distribution)
Java Runtime: Java(TM) SE Runtime Environment
JVM: Java HotSpot(TM) 64-Bit Server VM
Java Version: 1.8.0_151-b12
Operating System: Linux
OS Version: 4.4.0-101-generic
Default Encoding: UTF-8
Language: en
Country: US
--></g></svg>