<?xml version="1.0" encoding="UTF-8" standalone="no"?><svg xmlns="http://www.w3.org/2000/svg" xmlns:xlink="http://www.w3.org/1999/xlink" contentScriptType="application/ecmascript" contentStyleType="text/css" height="242px" preserveAspectRatio="none" style="width:602px;height:242px;" version="1.1" viewBox="0 0 602 242" width="602px" zoomAndPan="magnify"><defs><filter height="300%" id="f1mpnthrfcyh1z" width="300%" x="-1" y="-1"><feGaussianBlur result="blurOut" stdDeviation="2.0"/><feColorMatrix in="blurOut" result="blurOut2" type="matrix" values="0 0 0 0 0 0 0 0 0 0 0 0 0 0 0 0 0 0 .4 0"/><feOffset dx="4.0" dy="4.0" in="blurOut2" result="blurOut3"/><feBlend in="SourceGraphic" in2="blurOut3" mode="normal"/></filter></defs><g><!--cluster @angular/common/http--><polygon fill="#FFFFFF" filter="url(#f1mpnthrfcyh1z)" points="22,24,210,24,217,46.2969,580,46.2969,580,230,22,230,22,24" style="stroke: #000000; stroke-width: 1.5;"/><line style="stroke: #000000; stroke-width: 1.5;" x1="22" x2="217" y1="46.2969" y2="46.2969"/><text fill="#000000" font-family="sans-serif" font-size="14" font-weight="bold" lengthAdjust="spacingAndGlyphs" textLength="182" x="26" y="38.9951">@angular/common/http</text><!--class HttpClient--><rect fill="#FEFECE" filter="url(#f1mpnthrfcyh1z)" height="155.2422" id="HttpClient" style="stroke: #A80036; stroke-width: 1.5;" width="526" x="38" y="59"/><ellipse cx="265.75" cy="75" fill="#ADD1B2" rx="11" ry="11" style="stroke: #A80036; stroke-width: 1.0;"/><path d="M268.0938,70.6719 L268.2656,70.75 C268.4844,70.4375 268.6875,70.3438 268.9844,70.3438 C269.2813,70.3438 269.5625,70.4844 269.7188,70.75 C269.8125,70.9063 269.8281,71.0313 269.8281,71.4688 L269.8281,72.8906 C269.8281,73.3125 269.7969,73.5 269.6875,73.6563 C269.5156,73.875 269.25,74.0156 268.9844,74.0156 C268.7656,74.0156 268.5313,73.9063 268.3906,73.7656 C268.25,73.6406 268.2188,73.5156 268.1563,73.1094 C268.0625,72.7031 267.8906,72.4844 267.4063,72.2031 C266.9375,71.9531 266.3281,71.7969 265.75,71.7969 C264.0156,71.7969 262.7656,73.1094 262.7656,74.8906 L262.7656,75.9844 C262.7656,77.6875 264.0625,78.7813 266.1094,78.7813 C266.875,78.7813 267.5625,78.6563 267.9844,78.3906 C268.1719,78.2969 268.1719,78.2969 268.625,77.8125 C268.8125,77.625 269.0156,77.5469 269.2344,77.5469 C269.7031,77.5469 270.0938,77.9375 270.0938,78.3906 C270.0938,78.7813 269.7656,79.2344 269.1875,79.6406 C268.4375,80.1875 267.2813,80.4844 266.0625,80.4844 C263.1719,80.4844 261.0625,78.5938 261.0625,76.0156 L261.0625,74.8906 C261.0625,72.1719 263.0625,70.0938 265.6875,70.0938 C266.5625,70.0938 267.1563,70.2344 268.0938,70.6719 Z "/><text fill="#000000" font-family="sans-serif" font-size="12" lengthAdjust="spacingAndGlyphs" textLength="62" x="286.25" y="79.1543">HttpClient</text><line style="stroke: #A80036; stroke-width: 1.5;" x1="39" x2="563" y1="91" y2="91"/><ellipse cx="49" cy="102.9023" fill="#84BE84" rx="3" ry="3" style="stroke: #038048; stroke-width: 1.0;"/><text fill="#000000" font-family="sans-serif" font-size="11" lengthAdjust="spacingAndGlyphs" textLength="500" x="58" y="105.2104">request(first: string | HttpRequest&lt;any&gt;, url?: string, options: {...}): Observable&lt;any&gt;</text><ellipse cx="49" cy="115.707" fill="#84BE84" rx="3" ry="3" style="stroke: #038048; stroke-width: 1.0;"/><text fill="#000000" font-family="sans-serif" font-size="11" lengthAdjust="spacingAndGlyphs" textLength="294" x="58" y="118.0151">delete(url: string, options: {...}): Observable&lt;any&gt;</text><ellipse cx="49" cy="128.5117" fill="#84BE84" rx="3" ry="3" style="stroke: #038048; stroke-width: 1.0;"/><text fill="#000000" font-family="sans-serif" font-size="11" lengthAdjust="spacingAndGlyphs" textLength="277" x="58" y="130.8198">get(url: string, options: {...}): Observable&lt;any&gt;</text><ellipse cx="49" cy="141.3164" fill="#84BE84" rx="3" ry="3" style="stroke: #038048; stroke-width: 1.0;"/><text fill="#000000" font-family="sans-serif" font-size="11" lengthAdjust="spacingAndGlyphs" textLength="287" x="58" y="143.6245">head(url: string, options: {...}): Observable&lt;any&gt;</text><ellipse cx="49" cy="154.1211" fill="#84BE84" rx="3" ry="3" style="stroke: #038048; stroke-width: 1.0;"/><text fill="#000000" font-family="sans-serif" font-size="11" lengthAdjust="spacingAndGlyphs" textLength="349" x="58" y="156.4292">jsonp&lt;T&gt;(url: string, callbackParam: string): Observable&lt;T&gt;</text><ellipse cx="49" cy="166.9258" fill="#84BE84" rx="3" ry="3" style="stroke: #038048; stroke-width: 1.0;"/><text fill="#000000" font-family="sans-serif" font-size="11" lengthAdjust="spacingAndGlyphs" textLength="301" x="58" y="169.2339">options(url: string, options: {...}): Observable&lt;any&gt;</text><ellipse cx="49" cy="179.7305" fill="#84BE84" rx="3" ry="3" style="stroke: #038048; stroke-width: 1.0;"/><text fill="#000000" font-family="sans-serif" font-size="11" lengthAdjust="spacingAndGlyphs" textLength="385" x="58" y="182.0386">patch(url: string, body: any | null, options: {...}): Observable&lt;any&gt;</text><ellipse cx="49" cy="192.5352" fill="#84BE84" rx="3" ry="3" style="stroke: #038048; stroke-width: 1.0;"/><text fill="#000000" font-family="sans-serif" font-size="11" lengthAdjust="spacingAndGlyphs" textLength="379" x="58" y="194.8433">post(url: string, body: any | null, options: {...}): Observable&lt;any&gt;</text><ellipse cx="49" cy="205.3398" fill="#84BE84" rx="3" ry="3" style="stroke: #038048; stroke-width: 1.0;"/><text fill="#000000" font-family="sans-serif" font-size="11" lengthAdjust="spacingAndGlyphs" textLength="372" x="58" y="207.6479">put(url: string, body: any | null, options: {...}): Observable&lt;any&gt;</text><!--
@startuml
package "@angular/common/http" {
 class HttpClient {
  + request(first: string | HttpRequest<any>, url?: string, options: {...}): Observable<any>
  + delete(url: string, options: {...}): Observable<any>
  + get(url: string, options: {...}): Observable<any>
  + head(url: string, options: {...}): Observable<any>
  + jsonp<T>(url: string, callbackParam: string): Observable<T>
  + options(url: string, options: {...}): Observable<any>
  + patch(url: string, body: any | null, options: {...}): Observable<any>
  + post(url: string, body: any | null, options: {...}): Observable<any>
  + put(url: string, body: any | null, options: {...}): Observable<any>
 }
}
hide empty members
@enduml

PlantUML version 1.2018.08(Sun Jun 24 12:31:00 UTC 2018)
(GPL source distribution)
Java Runtime: Java(TM) SE Runtime Environment
JVM: Java HotSpot(TM) 64-Bit Server VM
Java Version: 1.7.0_25-b15
Operating System: Linux
Default Encoding: UTF-8
Language: en
Country: US
--></g></svg>