<?xml version="1.0" encoding="UTF-8" standalone="no"?><svg xmlns="http://www.w3.org/2000/svg" xmlns:xlink="http://www.w3.org/1999/xlink" contentScriptType="application/ecmascript" contentStyleType="text/css" height="488px" preserveAspectRatio="none" style="width:818px;height:488px;" version="1.1" viewBox="0 0 818 488" width="818px" zoomAndPan="magnify"><defs><filter height="300%" id="fnabgdau0gbrd" width="300%" x="-1" y="-1"><feGaussianBlur result="blurOut" stdDeviation="2.0"/><feColorMatrix in="blurOut" result="blurOut2" type="matrix" values="0 0 0 0 0 0 0 0 0 0 0 0 0 0 0 0 0 0 .4 0"/><feOffset dx="4.0" dy="4.0" in="blurOut2" result="blurOut3"/><feBlend in="SourceGraphic" in2="blurOut3" mode="normal"/></filter></defs><g><!--cluster rxjs--><polygon fill="#FFFFFF" filter="url(#fnabgdau0gbrd)" points="22,24,57,24,64,46.2969,796,46.2969,796,476,22,476,22,24" style="stroke: #000000; stroke-width: 1.5;"/><line style="stroke: #000000; stroke-width: 1.5;" x1="22" x2="64" y1="46.2969" y2="46.2969"/><text fill="#000000" font-family="sans-serif" font-size="14" font-weight="bold" lengthAdjust="spacingAndGlyphs" textLength="29" x="26" y="38.9951">rxjs</text><!--class Subscribable--><rect fill="#FEFECE" filter="url(#fnabgdau0gbrd)" height="78.4141" id="Subscribable" style="stroke: #A80036; stroke-width: 1.5;" width="431" x="66.5" y="59"/><ellipse cx="232.25" cy="75" fill="#B4A7E5" rx="11" ry="11" style="stroke: #A80036; stroke-width: 1.0;"/><path d="M233.2031,71.7813 L233.2031,78.2969 L234.9219,78.2969 C235.375,78.2969 235.5156,78.3281 235.6875,78.4531 C235.9219,78.625 236.0313,78.875 236.0313,79.1563 C236.0313,79.7188 235.6719,80 234.9219,80 L229.7813,80 C229.375,80 229.1719,79.9531 229.0156,79.8281 C228.7969,79.6719 228.6563,79.4063 228.6563,79.1563 C228.6563,78.8594 228.8125,78.5781 229.0625,78.4219 C229.2188,78.3125 229.3438,78.2969 229.7813,78.2969 L231.5,78.2969 L231.5,71.7813 L229.7813,71.7813 C229.3594,71.7813 229.1719,71.75 229.0156,71.6406 C228.7969,71.4688 228.6563,71.2188 228.6563,70.9375 C228.6563,70.6563 228.8125,70.3594 229.0625,70.2031 C229.2188,70.1094 229.3438,70.0938 229.7813,70.0938 L234.9219,70.0938 C235.375,70.0938 235.5156,70.125 235.6875,70.2344 C235.9219,70.4063 236.0313,70.6719 236.0313,70.9375 C236.0313,71.2344 235.8906,71.5156 235.625,71.6719 C235.5,71.75 235.3125,71.7813 234.9219,71.7813 Z "/><text fill="#000000" font-family="sans-serif" font-size="12" font-style="italic" lengthAdjust="spacingAndGlyphs" textLength="80" x="252.75" y="79.1543">Subscribable</text><rect fill="#FFFFFF" height="15.9688" style="stroke: #000000; stroke-width: 1.0; stroke-dasharray: 2.0,2.0;" width="9" x="491.5" y="56"/><text fill="#000000" font-family="sans-serif" font-size="12" font-style="italic" lengthAdjust="spacingAndGlyphs" textLength="7" x="492.5" y="68.1387">T</text><line style="stroke: #A80036; stroke-width: 1.5;" x1="67.5" x2="496.5" y1="91" y2="91"/><ellipse cx="77.5" cy="115.707" fill="#84BE84" rx="3" ry="3" style="stroke: #038048; stroke-width: 1.0;"/><text fill="#000000" font-family="sans-serif" font-size="11" font-style="italic" lengthAdjust="spacingAndGlyphs" textLength="405" x="86.5" y="105.2104">subscribe(observerOrNext?: PartialObserver&lt;T&gt; | ((value: T) =&gt; void),</text><text fill="#000000" font-family="sans-serif" font-size="11" font-style="italic" lengthAdjust="spacingAndGlyphs" textLength="163" x="86.5" y="118.0151">error?: (error: any) =&gt; void,</text><text fill="#000000" font-family="sans-serif" font-size="11" font-style="italic" lengthAdjust="spacingAndGlyphs" textLength="222" x="86.5" y="130.8198">complete?: () =&gt; void): Unsubscribable</text><!--class Unsubscribable--><rect fill="#FEFECE" filter="url(#fnabgdau0gbrd)" height="52.8047" id="Unsubscribable" style="stroke: #A80036; stroke-width: 1.5;" width="127" x="559.5" y="71.5"/><ellipse cx="574.5" cy="87.5" fill="#B4A7E5" rx="11" ry="11" style="stroke: #A80036; stroke-width: 1.0;"/><path d="M575.4531,84.2813 L575.4531,90.7969 L577.1719,90.7969 C577.625,90.7969 577.7656,90.8281 577.9375,90.9531 C578.1719,91.125 578.2813,91.375 578.2813,91.6563 C578.2813,92.2188 577.9219,92.5 577.1719,92.5 L572.0313,92.5 C571.625,92.5 571.4219,92.4531 571.2656,92.3281 C571.0469,92.1719 570.9063,91.9063 570.9063,91.6563 C570.9063,91.3594 571.0625,91.0781 571.3125,90.9219 C571.4688,90.8125 571.5938,90.7969 572.0313,90.7969 L573.75,90.7969 L573.75,84.2813 L572.0313,84.2813 C571.6094,84.2813 571.4219,84.25 571.2656,84.1406 C571.0469,83.9688 570.9063,83.7188 570.9063,83.4375 C570.9063,83.1563 571.0625,82.8594 571.3125,82.7031 C571.4688,82.6094 571.5938,82.5938 572.0313,82.5938 L577.1719,82.5938 C577.625,82.5938 577.7656,82.625 577.9375,82.7344 C578.1719,82.9063 578.2813,83.1719 578.2813,83.4375 C578.2813,83.7344 578.1406,84.0156 577.875,84.1719 C577.75,84.25 577.5625,84.2813 577.1719,84.2813 Z "/><text fill="#000000" font-family="sans-serif" font-size="12" font-style="italic" lengthAdjust="spacingAndGlyphs" textLength="95" x="588.5" y="91.6543">Unsubscribable</text><line style="stroke: #A80036; stroke-width: 1.5;" x1="560.5" x2="685.5" y1="103.5" y2="103.5"/><ellipse cx="570.5" cy="115.4023" fill="#84BE84" rx="3" ry="3" style="stroke: #038048; stroke-width: 1.0;"/><text fill="#000000" font-family="sans-serif" font-size="11" font-style="italic" lengthAdjust="spacingAndGlyphs" textLength="76" x="579.5" y="117.7104">unsubscribe()</text><!--class Observable--><rect fill="#FEFECE" filter="url(#fnabgdau0gbrd)" height="78.4141" id="Observable" style="stroke: #A80036; stroke-width: 1.5;" width="430" x="38" y="197"/><ellipse cx="208.25" cy="213" fill="#ADD1B2" rx="11" ry="11" style="stroke: #A80036; stroke-width: 1.0;"/><path d="M210.5938,208.6719 L210.7656,208.75 C210.9844,208.4375 211.1875,208.3438 211.4844,208.3438 C211.7813,208.3438 212.0625,208.4844 212.2188,208.75 C212.3125,208.9063 212.3281,209.0313 212.3281,209.4688 L212.3281,210.8906 C212.3281,211.3125 212.2969,211.5 212.1875,211.6563 C212.0156,211.875 211.75,212.0156 211.4844,212.0156 C211.2656,212.0156 211.0313,211.9063 210.8906,211.7656 C210.75,211.6406 210.7188,211.5156 210.6563,211.1094 C210.5625,210.7031 210.3906,210.4844 209.9063,210.2031 C209.4375,209.9531 208.8281,209.7969 208.25,209.7969 C206.5156,209.7969 205.2656,211.1094 205.2656,212.8906 L205.2656,213.9844 C205.2656,215.6875 206.5625,216.7813 208.6094,216.7813 C209.375,216.7813 210.0625,216.6563 210.4844,216.3906 C210.6719,216.2969 210.6719,216.2969 211.125,215.8125 C211.3125,215.625 211.5156,215.5469 211.7344,215.5469 C212.2031,215.5469 212.5938,215.9375 212.5938,216.3906 C212.5938,216.7813 212.2656,217.2344 211.6875,217.6406 C210.9375,218.1875 209.7813,218.4844 208.5625,218.4844 C205.6719,218.4844 203.5625,216.5938 203.5625,214.0156 L203.5625,212.8906 C203.5625,210.1719 205.5625,208.0938 208.1875,208.0938 C209.0625,208.0938 209.6563,208.2344 210.5938,208.6719 Z "/><text fill="#000000" font-family="sans-serif" font-size="12" lengthAdjust="spacingAndGlyphs" textLength="70" x="228.75" y="217.1543">Observable</text><rect fill="#FFFFFF" height="15.9688" style="stroke: #000000; stroke-width: 1.0; stroke-dasharray: 2.0,2.0;" width="9" x="462" y="194"/><text fill="#000000" font-family="sans-serif" font-size="12" font-style="italic" lengthAdjust="spacingAndGlyphs" textLength="7" x="463" y="206.1387">T</text><line style="stroke: #A80036; stroke-width: 1.5;" x1="39" x2="467" y1="229" y2="229"/><ellipse cx="49" cy="253.707" fill="#84BE84" rx="3" ry="3" style="stroke: #038048; stroke-width: 1.0;"/><text fill="#000000" font-family="sans-serif" font-size="11" lengthAdjust="spacingAndGlyphs" textLength="404" x="58" y="243.2104">subscribe(observerOrNext?: PartialObserver&lt;T&gt; | ((value: T) =&gt; void),</text><text fill="#000000" font-family="sans-serif" font-size="11" lengthAdjust="spacingAndGlyphs" textLength="161" x="58" y="256.0151">error?: (error: any) =&gt; void,</text><text fill="#000000" font-family="sans-serif" font-size="11" lengthAdjust="spacingAndGlyphs" textLength="206" x="58" y="268.8198">complete?: () =&gt; void): Subscription</text><!--class Subscription--><rect fill="#FEFECE" filter="url(#fnabgdau0gbrd)" height="65.6094" id="Subscription" style="stroke: #A80036; stroke-width: 1.5;" width="240" x="503" y="203"/><ellipse cx="579.75" cy="219" fill="#ADD1B2" rx="11" ry="11" style="stroke: #A80036; stroke-width: 1.0;"/><path d="M582.0938,214.6719 L582.2656,214.75 C582.4844,214.4375 582.6875,214.3438 582.9844,214.3438 C583.2813,214.3438 583.5625,214.4844 583.7188,214.75 C583.8125,214.9063 583.8281,215.0313 583.8281,215.4688 L583.8281,216.8906 C583.8281,217.3125 583.7969,217.5 583.6875,217.6563 C583.5156,217.875 583.25,218.0156 582.9844,218.0156 C582.7656,218.0156 582.5313,217.9063 582.3906,217.7656 C582.25,217.6406 582.2188,217.5156 582.1563,217.1094 C582.0625,216.7031 581.8906,216.4844 581.4063,216.2031 C580.9375,215.9531 580.3281,215.7969 579.75,215.7969 C578.0156,215.7969 576.7656,217.1094 576.7656,218.8906 L576.7656,219.9844 C576.7656,221.6875 578.0625,222.7813 580.1094,222.7813 C580.875,222.7813 581.5625,222.6563 581.9844,222.3906 C582.1719,222.2969 582.1719,222.2969 582.625,221.8125 C582.8125,221.625 583.0156,221.5469 583.2344,221.5469 C583.7031,221.5469 584.0938,221.9375 584.0938,222.3906 C584.0938,222.7813 583.7656,223.2344 583.1875,223.6406 C582.4375,224.1875 581.2813,224.4844 580.0625,224.4844 C577.1719,224.4844 575.0625,222.5938 575.0625,220.0156 L575.0625,218.8906 C575.0625,216.1719 577.0625,214.0938 579.6875,214.0938 C580.5625,214.0938 581.1563,214.2344 582.0938,214.6719 Z "/><text fill="#000000" font-family="sans-serif" font-size="12" lengthAdjust="spacingAndGlyphs" textLength="78" x="600.25" y="223.1543">Subscription</text><line style="stroke: #A80036; stroke-width: 1.5;" x1="504" x2="742" y1="235" y2="235"/><ellipse cx="514" cy="246.9023" fill="#84BE84" rx="3" ry="3" style="stroke: #038048; stroke-width: 1.0;"/><text fill="#000000" font-family="sans-serif" font-size="11" lengthAdjust="spacingAndGlyphs" textLength="214" x="523" y="249.2104">constructor(unsubscribe?: () =&gt; void)</text><ellipse cx="514" cy="259.707" fill="#84BE84" rx="3" ry="3" style="stroke: #038048; stroke-width: 1.0;"/><text fill="#000000" font-family="sans-serif" font-size="11" lengthAdjust="spacingAndGlyphs" textLength="109" x="523" y="262.0151">unsubscribe(): void</text><!--class Subject--><rect fill="#FEFECE" filter="url(#fnabgdau0gbrd)" height="124.8281" id="Subject" style="stroke: #A80036; stroke-width: 1.5;" width="211" x="357.5" y="335"/><ellipse cx="435.25" cy="351" fill="#ADD1B2" rx="11" ry="11" style="stroke: #A80036; stroke-width: 1.0;"/><path d="M437.5938,346.6719 L437.7656,346.75 C437.9844,346.4375 438.1875,346.3438 438.4844,346.3438 C438.7813,346.3438 439.0625,346.4844 439.2188,346.75 C439.3125,346.9063 439.3281,347.0313 439.3281,347.4688 L439.3281,348.8906 C439.3281,349.3125 439.2969,349.5 439.1875,349.6563 C439.0156,349.875 438.75,350.0156 438.4844,350.0156 C438.2656,350.0156 438.0313,349.9063 437.8906,349.7656 C437.75,349.6406 437.7188,349.5156 437.6563,349.1094 C437.5625,348.7031 437.3906,348.4844 436.9063,348.2031 C436.4375,347.9531 435.8281,347.7969 435.25,347.7969 C433.5156,347.7969 432.2656,349.1094 432.2656,350.8906 L432.2656,351.9844 C432.2656,353.6875 433.5625,354.7813 435.6094,354.7813 C436.375,354.7813 437.0625,354.6563 437.4844,354.3906 C437.6719,354.2969 437.6719,354.2969 438.125,353.8125 C438.3125,353.625 438.5156,353.5469 438.7344,353.5469 C439.2031,353.5469 439.5938,353.9375 439.5938,354.3906 C439.5938,354.7813 439.2656,355.2344 438.6875,355.6406 C437.9375,356.1875 436.7813,356.4844 435.5625,356.4844 C432.6719,356.4844 430.5625,354.5938 430.5625,352.0156 L430.5625,350.8906 C430.5625,348.1719 432.5625,346.0938 435.1875,346.0938 C436.0625,346.0938 436.6563,346.2344 437.5938,346.6719 Z "/><text fill="#000000" font-family="sans-serif" font-size="12" lengthAdjust="spacingAndGlyphs" textLength="47" x="455.75" y="355.1543">Subject</text><line style="stroke: #A80036; stroke-width: 1.5;" x1="358.5" x2="567.5" y1="367" y2="367"/><text fill="#000000" font-family="sans-serif" font-size="11" lengthAdjust="spacingAndGlyphs" textLength="152" x="363.5" y="381.2104">observers: Observer&lt;T&gt;[]</text><line style="stroke: #A80036; stroke-width: 1.5;" x1="358.5" x2="567.5" y1="387.8047" y2="387.8047"/><ellipse cx="368.5" cy="399.707" fill="#84BE84" rx="3" ry="3" style="stroke: #038048; stroke-width: 1.0;"/><text fill="#000000" font-family="sans-serif" font-size="11" lengthAdjust="spacingAndGlyphs" textLength="185" x="377.5" y="402.0151">asObservable(): Observable&lt;T&gt;</text><ellipse cx="368.5" cy="412.5117" fill="#84BE84" rx="3" ry="3" style="stroke: #038048; stroke-width: 1.0;"/><text fill="#000000" font-family="sans-serif" font-size="11" lengthAdjust="spacingAndGlyphs" textLength="78" x="377.5" y="414.8198">unsubscribe()</text><ellipse cx="368.5" cy="425.3164" fill="#84BE84" rx="3" ry="3" style="stroke: #038048; stroke-width: 1.0;"/><text fill="#000000" font-family="sans-serif" font-size="11" lengthAdjust="spacingAndGlyphs" textLength="83" x="377.5" y="427.6245">next(value?: T)</text><ellipse cx="368.5" cy="438.1211" fill="#84BE84" rx="3" ry="3" style="stroke: #038048; stroke-width: 1.0;"/><text fill="#000000" font-family="sans-serif" font-size="11" lengthAdjust="spacingAndGlyphs" textLength="82" x="377.5" y="440.4292">error(err: any)</text><ellipse cx="368.5" cy="450.9258" fill="#84BE84" rx="3" ry="3" style="stroke: #038048; stroke-width: 1.0;"/><text fill="#000000" font-family="sans-serif" font-size="11" lengthAdjust="spacingAndGlyphs" textLength="60" x="377.5" y="453.2339">complete()</text><!--link Subscribable to Observable--><path d="M269.654,156.899 C266.796,170.302 263.823,184.242 261.195,196.57 " fill="none" id="Subscribable-Observable" style="stroke: #A80036; stroke-width: 1.0; stroke-dasharray: 7.0,7.0;"/><polygon fill="none" points="262.828,155.346,273.845,137.246,276.52,158.266,262.828,155.346" style="stroke: #A80036; stroke-width: 1.0;"/><!--link Unsubscribable to Subscription--><path d="M623,144.63 C623,163.715 623,185.445 623,202.813 " fill="none" id="Unsubscribable-Subscription" style="stroke: #A80036; stroke-width: 1.0; stroke-dasharray: 7.0,7.0;"/><polygon fill="none" points="616,144.581,623,124.581,630,144.581,616,144.581" style="stroke: #A80036; stroke-width: 1.0;"/><!--link Subscribable to Unsubscribable--><path d="M497.789,98 C516.566,98 535.343,98 554.12,98 " fill="none" id="Subscribable-Unsubscribable" style="stroke: #A80036; stroke-width: 1.0; stroke-dasharray: 7.0,7.0;"/><polygon fill="#A80036" points="559.416,98,550.416,94,554.416,98,550.416,102,559.416,98" style="stroke: #A80036; stroke-width: 1.0;"/><!--link Observable to Subscription--><path d="M468.352,236 C478.126,236 487.9,236 497.674,236 " fill="none" id="Observable-Subscription" style="stroke: #A80036; stroke-width: 1.0; stroke-dasharray: 7.0,7.0;"/><polygon fill="#A80036" points="502.785,236,493.785,232,497.785,236,493.785,240,502.785,236" style="stroke: #A80036; stroke-width: 1.0;"/><!--link Observable to Subject--><path d="M319.139,287.234 C339.008,302.325 361.038,319.058 381.765,334.8 " fill="none" id="Observable-Subject" style="stroke: #A80036; stroke-width: 1.0;"/><polygon fill="none" points="314.726,292.673,303.033,275.002,323.194,281.524,314.726,292.673" style="stroke: #A80036; stroke-width: 1.0;"/><!--link Unsubscribable to Subject--><path d="M699.712,135.024 C723.81,150.482 747.602,171.053 761,197 C776.905,227.803 780.34,246.229 761,275 C718.298,338.525 635.956,368.855 568.63,383.326 " fill="none" id="Unsubscribable-Subject" style="stroke: #A80036; stroke-width: 1.0; stroke-dasharray: 7.0,7.0;"/><polygon fill="none" points="695.885,140.893,682.256,124.669,703.029,128.853,695.885,140.893" style="stroke: #A80036; stroke-width: 1.0;"/><!--
@startuml
package "rxjs" {
 interface Subscribable<T> {
  + {abstract} subscribe(observerOrNext?: PartialObserver<T> | ((value: T) => void),\nerror?: (error: any) => void,\ncomplete?: () => void): Unsubscribable
 }
 interface Unsubscribable {
  + {abstract} unsubscribe()
 }
 class Observable<T> {
  + subscribe(observerOrNext?: PartialObserver<T> | ((value: T) => void),\nerror?: (error: any) => void,\ncomplete?: () => void): Subscription
 }
 class Subscription {
  + constructor(unsubscribe?: () => void)
  + unsubscribe(): void
 }
 class Subject {
  observers: Observer<T>[]
  + asObservable(): Observable<T>
  + unsubscribe()
  + next(value?: T)
  + error(err: any)
  + complete()
 }
 Observable .up.|> Subscribable
 Subscription .up.|> Unsubscribable
 Subscribable .right.> Unsubscribable
 Observable .right.> Subscription
 Subject -up-|> Observable
 Subject .up.|> Unsubscribable
}
hide empty members
@enduml

PlantUML version 1.2018.08(Sun Jun 24 12:31:00 UTC 2018)
(GPL source distribution)
Java Runtime: Java(TM) SE Runtime Environment
JVM: Java HotSpot(TM) 64-Bit Server VM
Java Version: 1.7.0_25-b15
Operating System: Linux
Default Encoding: UTF-8
Language: en
Country: US
--></g></svg>